<svg xmlns="http://www.w3.org/2000/svg" xmlns:xlink="http://www.w3.org/1999/xlink" viewBox="0,0,256,256" width="100px" height="100px" fill-rule="nonzero"><g fill="#292929" fill-rule="nonzero" stroke="none" stroke-width="1" stroke-linecap="butt" stroke-linejoin="miter" stroke-miterlimit="10" stroke-dasharray="" stroke-dashoffset="0" font-family="none" font-weight="none" font-size="none" text-anchor="none" style="mix-blend-mode: normal"><g transform="scale(5.33333,5.33333)"><path d="M10.5,8c-3.57194,0 -6.5,2.92806 -6.5,6.5v19c0,3.57194 2.92806,6.5 6.5,6.5h27c3.57194,0 6.5,-2.92806 6.5,-6.5v-19c0,-3.57194 -2.92806,-6.5 -6.5,-6.5zM10.5,11h27c0.59302,0 1.14028,0.15777 1.62695,0.41211l-15.12695,8.17774l-15.12695,-8.17773c0.48668,-0.25433 1.03393,-0.41211 1.62695,-0.41211zM10,18.84375l12.57227,6.79492c0.446,0.241 0.93673,0.36133 1.42773,0.36133c0.491,0 0.98173,-0.12033 1.42773,-0.36133l12.57227,-6.79492v18.10742c-0.16445,0.02317 -0.32859,0.04883 -0.5,0.04883h-27c-0.17141,0 -0.33555,-0.02566 -0.5,-0.04883z"></path></g></g></svg>