<svg xmlns="http://www.w3.org/2000/svg" xmlns:xlink="http://www.w3.org/1999/xlink" viewBox="0,0,256,256" width="100px" height="100px" fill-rule="nonzero"><g fill="#fffcfc" fill-rule="nonzero" stroke="none" stroke-width="1" stroke-linecap="butt" stroke-linejoin="miter" stroke-miterlimit="10" stroke-dasharray="" stroke-dashoffset="0" font-family="none" font-weight="none" font-size="none" text-anchor="none" style="mix-blend-mode: normal"><g transform="scale(5.33333,5.33333)"><path d="M23.97852,1.49805c-12.342,0 -22.00977,9.78058 -22.00977,22.26758c0,3.721 0.00191,5.63995 0.00391,6.62695c0,0.087 0.00681,0.15623 0.00781,0.24023c-0.005,0.103 -0.01953,0.20555 -0.01953,0.31055h0.0293c0.004,0.171 0.00158,0.35767 0.01758,0.51367h-0.0293c0,0.133 0.01239,0.26644 0.02539,0.39844c0,0 -0.001,0.16106 0,0.41406c0.396,0.678 1.01777,7.69727 22.75977,7.69727c13.094,0 19.40017,-3.38898 21.20117,-6.33398l0.01367,-2.18359c0.001,-0.033 0.00781,-0.06466 0.00781,-0.09766v-7.49023c-0.001,-12.541 -9.66781,-22.36328 -22.00781,-22.36328zM23.97852,4.49805c10.657,0 19.00586,8.50433 19.00586,19.36133v1.64453c-1.706,-1.347 -4.11744,-2.46502 -7.14844,-3.29102c-0.287,-1.552 -0.86522,-2.77152 -1.32422,-3.72852c-0.225,-0.469 -0.5332,-1.11027 -0.5332,-1.32227v-2.13867c0,-3.682 -3.47125,-7.03516 -7.28125,-7.03516h-5.71484c-3.719,0 -6.98047,3.30998 -6.98047,7.08398v2.14062c0,0.213 -0.30053,0.84178 -0.51953,1.30078c-0.458,0.957 -1.0355,2.17881 -1.3125,3.75781c-3.046,0.812 -5.47722,1.92449 -7.19922,3.27148v-1.77734c0,-10.805 8.34781,-19.26758 19.00781,-19.26758zM20.98242,10.98633h5.71484c0.707,0 1.41188,0.24119 2.04688,0.61719c-0.405,0.139 -0.74044,0.32991 -1.02344,0.50391c-0.467,0.287 -0.7782,0.47145 -1.4082,0.43945c-0.538,-0.025 -1.02459,0.3865 -1.05859,0.9375c-0.034,0.552 0.38455,1.02555 0.93555,1.06055c1.268,0.079 2.02408,-0.39142 2.58008,-0.73242c0.401,-0.246 0.6258,-0.37667 0.9668,-0.38867c0.261,-0.004 0.60411,0.03742 0.91211,0.23242c0.204,0.441 0.33008,0.90323 0.33008,1.36523v2.13867c0,0.894 0.38312,1.69409 0.82813,2.62109c0.567,1.183 1.21094,2.52319 1.21094,4.36719v3.56445c0,5.68 -4.32736,9.987 -7.31836,10.25c-0.455,0.014 -0.91281,0.02344 -1.38281,0.02344c-0.787,0.002 -1.53425,-0.03527 -2.28125,-0.07227c-3.006,-0.58 -7.0293,-4.77266 -7.0293,-10.22266v-3.56641c0,-1.844 0.62764,-3.15741 1.18164,-4.31641c0.419,-0.875 0.81445,-1.7027 0.81445,-2.5957v-2.14062c0,-0.047 0.01363,-0.09458 0.01563,-0.14258c0.354,-0.704 0.89227,-1.31447 1.57227,-1.35547c0.356,-0.021 0.42989,0.02547 0.71289,0.23047c0.379,0.274 0.95214,0.68872 2.11914,0.76172c0.547,0.027 1.02555,-0.38355 1.06055,-0.93555c0.034,-0.551 -0.38455,-1.0275 -0.93555,-1.0625c-0.59,-0.037 -0.78227,-0.17476 -1.07227,-0.38476c-0.315,-0.226 -0.74431,-0.50998 -1.44531,-0.58399c0.575,-0.37 1.23313,-0.61328 1.95313,-0.61328zM20.33008,15.61328c-1.462,0 -2.2763,0.85438 -2.5293,1.35938c-0.21,0.422 -0.04091,0.91758 0.37109,1.14258c0.133,0.073 0.27502,0.1027 0.41602,0.0957c0.017,-0.469 0.39419,-0.84766 0.86719,-0.84766c0.131,0 0.25424,0.03394 0.36523,0.08594c0.3,0.138 0.50977,0.43806 0.50977,0.78906c0,0.483 -0.393,0.87305 -0.875,0.87305c-0.229,0 -0.43384,-0.09328 -0.58984,-0.23828c0.183,0.641 0.76684,1.11328 1.46484,1.11328c0.845,0 1.5293,-0.68625 1.5293,-1.53125c0,-0.09 -0.01039,-0.17667 -0.02539,-0.26367c0.08,0.026 0.16109,0.04492 0.24609,0.04492c0.131,0 0.26563,-0.0298 0.39063,-0.0918c0.432,-0.217 0.60663,-0.73988 0.39063,-1.17187c-0.253,-0.504 -1.06925,-1.35937 -2.53125,-1.35937zM27.66797,15.61328c-1.462,0 -2.27825,0.85438 -2.53125,1.35938c-0.211,0.422 -0.04286,0.91758 0.36914,1.14258c0.133,0.073 0.27502,0.1027 0.41602,0.0957c0.017,-0.469 0.39614,-0.84766 0.86914,-0.84766c0.131,0 0.25228,0.03394 0.36328,0.08594c0.3,0.138 0.51172,0.43806 0.51172,0.78906c0,0.483 -0.39105,0.87305 -0.87305,0.87305c-0.229,0 -0.4368,-0.09328 -0.5918,-0.23828c0.183,0.641 0.76684,1.11328 1.46484,1.11328c0.844,0 1.5293,-0.68625 1.5293,-1.53125c0,-0.09 -0.01039,-0.17667 -0.02539,-0.26367c0.08,0.026 0.16109,0.04492 0.24609,0.04492c0.131,0 0.26563,-0.0298 0.39063,-0.0918c0.432,-0.217 0.60663,-0.73988 0.39063,-1.17187c-0.253,-0.504 -1.0673,-1.35937 -2.5293,-1.35937zM23.97461,20.01953c-0.407,0 -0.8155,0.09334 -1.1875,0.27734c-0.039,0.02 -0.07437,0.0395 -0.10937,0.0625l-1.25,0.83398c-0.46,0.307 -0.58434,0.92772 -0.27734,1.38672c0.307,0.459 0.92872,0.58334 1.38672,0.27734l1.1875,-0.79102c0.163,-0.066 0.34091,-0.06605 0.50391,0.00195l1.22852,0.79688c0.168,0.108 0.35597,0.16016 0.54297,0.16016c0.328,0 0.6498,-0.16008 0.8418,-0.45508c0.3,-0.464 0.16613,-1.08376 -0.29687,-1.38477l-1.28711,-0.83398c-0.032,-0.02 -0.06461,-0.03769 -0.09961,-0.05469c-0.37,-0.184 -0.77659,-0.27734 -1.18359,-0.27734zM29.09961,22.99219c-0.2545,0.033 -0.49797,0.16145 -0.66797,0.37695c-0.02,0.025 -0.48939,0.60094 -1.40039,0.83594c-1.029,0.206 -2.93778,0.46367 -6.17578,0.51367c-0.703,-0.026 -1.1463,-0.42755 -1.1543,-0.43555c-0.181,-0.185 -0.42459,-0.29278 -0.68359,-0.30078c-0.141,-0.004 -1.31434,0.00205 -2.02734,1.24805c-0.274,0.479 -0.10691,1.09123 0.37109,1.36523c0.157,0.09 0.32809,0.13086 0.49609,0.13086c0.347,0 0.68514,-0.17995 0.86914,-0.50195c0.017,-0.031 0.03573,-0.05217 0.05273,-0.07617c0.135,0.656 0.58048,2.2402 1.89648,3.1582c0.822,0.538 1.80092,0.70508 2.79492,0.70508c0.694,0.001 1.39459,-0.07892 2.05859,-0.16992c2.788,-0.382 3.6108,-3.11608 3.8418,-4.33008c0.326,0.359 0.86039,0.45373 1.27539,0.17773c0.462,-0.304 0.59011,-0.92377 0.28711,-1.38477c-0.336,-0.512 -0.9717,-1.01923 -1.0957,-1.11523c-0.217,-0.1675 -0.48378,-0.23026 -0.73828,-0.19727zM23.99023,30.97266c-1.256,0 -2.00781,0.77281 -2.00781,1.88281c0,0.628 0.56286,1.13086 1.25586,1.13086c0.693,0 1.25586,-0.44991 1.25586,-1.00391c0,0 0.50195,-0.00105 0.50195,0.62695c0,0.879 -1.00391,1.38086 -1.00391,1.38086c0,0 2.00781,-0.25081 2.00781,-2.00781c0,-1.11 -0.89977,-2.00977 -2.00977,-2.00977zM2.01563,37.32031c0.001,0.367 0.00195,0.61048 0.00195,0.64648c0,3.726 5.64016,8.07617 21.53516,8.07617c10.323,0 22.37891,-2.04125 22.37891,-7.78125l0.00195,-0.29883c-3.511,2.724 -9.99592,5.00391 -21.16992,5.00391c-8.925,0 -18.34305,-1.79848 -22.74805,-5.64648z"></path></g></g></svg>